<svg xmlns="http://www.w3.org/2000/svg" width="512" height="512" viewBox="0 0 512 512"><path fill="#0094D2" d="M512 472c0 22.1-17.9 40-40 40H40c-22.1 0-40-17.9-40-40V40C0 17.9 17.9 0 40 0h432c22.1 0 40 17.9 40 40v432z"/><path fill="#022345" d="M179 100.3s-34.5 20-62.6 68.2c-27.1 46.3-22.3 35.5-43.5 84 7.9 15.9 18.3 29.1 37.9 35.5 17.7 5.8 41.4 9.7 53.2 9.7 9.5-24.2 31.9-66.2 70.1-119.2 17.3-24 61.8-77.9 85.9-77.9-35.4 0-141-.3-141-.3z"/><path fill="#D70C19" d="M262.1 153.4s17.6-20 27.3-27.3c9.7-7.3 16.6-13.8 30.6-17.3 12.8-3.3 18.5-4.7 28.5 0s34.1 37.6 44.4 52.3c10.3 14.7 40.3 65.2 43.2 76.1 2.4 9 5.3 18.5 0 26.1-5.3 7.6-11.7 13.4-21.7 18.7-10 5.4-30 14.6-66.1 15.7-7.6-20.4-15.3-41.2-35.8-72.9-20.7-31.7-50.4-71.4-50.4-71.4z"/><path fill="#022345" d="M320 307.8l-60.2 50.4 50.2 53.5s25.4 1.8 40.5-14.7c15.1-16.5 12.1-15.3 17.1-22.9 5-7.6 71.2-102.9 71.2-102.9s-26.6 24-46.9 29.1c-11.7 3-27 5.4-46.4 6.5-19.3 1.2-25.5 1-25.5 1z"/><path fill="#D70C19" d="M194.9 307.8l60.2 50.4-50.2 53.5s-25.4 1.8-40.5-14.7c-15.1-16.5-12.1-15.3-17.1-22.9-5-7.6-71.2-102.9-71.2-102.9s26.6 24 46.9 29.1c11.7 3 27 5.4 46.4 6.5 19.3 1.2 25.5 1 25.5 1z"/></svg>