<svg xmlns="http://www.w3.org/2000/svg" width="512" height="512" viewBox="0 0 512 512"><linearGradient id="a" gradientUnits="userSpaceOnUse" y1="256" x2="512" y2="256"><stop offset=".746" stop-color="#d71f29"/><stop offset="1" stop-color="#d71f29"/></linearGradient><path fill="url(#a)" d="M512 472c0 22.1-17.9 40-40 40H40c-22.1 0-40-17.9-40-40V40C0 17.9 17.9 0 40 0h432c22.1 0 40 17.9 40 40v432z"/><path fill="#FFF" d="M358 148.3c-34.4 75.1-114.7 152-179.4 171.5-64.8 19.6-89.2-25.6-54.4-100.9l-34.3 10.4c-53.1 115-16 184.1 83 154.1 98.7-30 221.3-147.3 273.6-261.8L358 148.3z"/><path fill="#FFF" d="M139.6 214.2c-17.7 38.4-5.3 61.4 27.7 51.5 33-10 74-49.2 91.6-87.5l-119.3 36z"/></svg>