<svg xmlns="http://www.w3.org/2000/svg" width="512" height="512" viewBox="0 0 512 512"><path fill="#193B80" d="M512 472c0 22.1-17.9 40-40 40H40c-22.1 0-40-17.9-40-40V40C0 17.9 17.9 0 40 0h432c22.1 0 40 17.9 40 40v432z"/><path fill="#FFCD32" d="M63.3 149.4h117.9s6.7 1.1 5.6 7.9c-1.1 6.7-10.1 53.9-2.2 73 7.9 19.1 28.1 61.7 71.8 76.3 43.8 14.6 92.1-4.5 92.1-51.6 0-47.2-46-57.3-61.7-57.3 0 0-74.1 19.1-37 93.2 0 0-44.9-19.1-56.1-68.5 0 0 26.9-66.2 79.7-69.6 52.8-3.4 124.6 12.3 121.2 119 0 0-16.8 117.9-172.9 85.3 0 0-142.6-25.8-160.5-190.9-.1 0-2.4-14.6 2.1-16.8z"/><path fill="#FFCD32" d="M397.9 156.1s12.3 43.8 4.5 67.4c0 0 2.2 7.9 2.2 13.5s7.9 56.1-30.3 98.8c0 0 56.1-18 75.2-111.1 0 0 6.7-48.3-4.5-69.6 0 0 0-6.7-10.1-5.6-10.1 1.1-29.2 0-29.2 0s-6.7 2.1-7.8 6.6z"/></svg>