<svg xmlns="http://www.w3.org/2000/svg" width="512" height="512" viewBox="0 0 512 512"><path fill="#0B9444" d="M40 512c-22.1 0-40-17.9-40-40V40C0 17.9 17.9 0 40 0h432c22.1 0 40 17.9 40 40v432c0 22.1-17.9 40-40 40H40z"/><path fill-rule="evenodd" clip-rule="evenodd" fill="#FFF" d="M286.9 86.8h148.7c-1.9 11.5-4.7 22-6.6 33.4H302.1c-5.7 15.5-9.9 32.6-15.2 48.6h-76.4c-2.9 5.5-3.7 13.1-5.6 19.7 30.5 1.2 63.2.2 94.6.5 5.9-16.1 10-34.2 15.2-51.1h110.8c-2.6 10.4-4.8 21.2-7.1 31.9h-88c-5.6 16.6-9.2 35.3-14.2 52.6H199.4c-2.8 4.8-3.2 12-5.1 17.7 24.8 1.2 51.7.2 77.4.5-5.9 28.3-11.9 56.5-17.7 85h-75.9c-1.9 4.2-2.8 9.4-4.1 14.2 31.2 1.2 64.6.2 96.6.5 7.6-32.8 14.3-66.6 21.7-99.6h111.8c-2.2 10.5-4.3 21-6.6 31.4H308c-9.1 33.1-15.7 68.6-24.3 102.2H166.4c-2 5.1-3 11.1-4 17.2 43.7 1.2 89.5.2 134 .5 7.9-33.2 15.4-66.9 22.7-100.6h73.8c-2.2 11.5-4.4 22.9-6.6 34.4h-52.6c-7.7 33.1-15.5 66.1-22.8 99.6H135.4c6.5-34 14.1-66.8 20.7-100.6-25.6-1.2-53.4-.2-79.9-.5 5.3-28.3 11.6-55.5 17.2-83.5h77.9c8.6-33.7 16.2-68.5 23.8-103.2h78.4c5.6-16 8.2-34.7 13.4-50.8zM103.8 290.6H162c1.6-6.1 3.7-11.8 5.1-18.2h-58.7c-2.4 5.3-3.4 11.9-4.6 18.2zm83.9-18.2c-1.4 5.5-3.7 12.8-3.5 18.2h58.2c1.1-6.1 2.7-11.8 3.5-18.2h-58.2z"/></svg>