<svg xmlns="http://www.w3.org/2000/svg" width="512" height="512" viewBox="0 0 512 512"><path fill="#030708" d="M512 472c0 22.1-17.9 40-40 40H40c-22.1 0-40-17.9-40-40V40C0 17.9 17.9 0 40 0h432c22.1 0 40 17.9 40 40v432z"/><path fill-rule="evenodd" clip-rule="evenodd" fill="#EB3C2E" d="M404.7 107.3v216.1s-54.9 53.5-81.4 81.4V191.2H107.2c42.5-45 52.2-54.2 83.9-83.9h213.6z"/><path fill-rule="evenodd" clip-rule="evenodd" fill="#FFF" d="M193.7 198.8h40.7v78.6c30.3 0 47.2.2 78.8.2v40.9h-78.8v81.1h-40.7v-81.1h-78.8v-40.9h78.8v-78.8z"/></svg>