<svg xmlns="http://www.w3.org/2000/svg" width="512" height="512" viewBox="0 0 512 512"><path fill="#FFC71C" d="M40 512c-22.1 0-40-17.9-40-40V40C0 17.9 17.9 0 40 0h432c22.1 0 40 17.9 40 40v432c0 22.1-17.9 40-40 40H40z"/><path fill-rule="evenodd" clip-rule="evenodd" fill="#231F20" d="M244.5 336C126.3 336 80.6 233.2 86.8 155.2l34.7-11c-5.7 44.2 8 76.2 17.6 90.9-11.3-62.7 36-113.5 95.2-113.5 53.3-.1 97.3 38.9 97.2 94.7 7.8-21.3 13.2-53.8 14.3-76.4l80 19.9C419.4 253.7 348.9 336 244.5 336zm115 54.3l-45.5-46h45l45.5 46h-45zm-60.8 0l-45.6-46h45.1l45.5 46h-45zm-101.5 0H152l45.5-46h45.1l-45.4 46zm-106 0l45.6-46h45l-45.5 46H91.2zm143.2-235.9c-35.3 0-63.9 28.7-63.9 64s28.6 64 63.9 64c35.4 0 64-28.7 64-64 0-35.4-28.6-64-64-64z"/></svg>