<svg xmlns="http://www.w3.org/2000/svg" width="512" height="512" viewBox="0 0 512 512"><path fill="#883185" d="M512 472c0 22.1-17.9 40-40 40H40c-22.1 0-40-17.9-40-40V40C0 17.9 17.9 0 40 0h432c22.1 0 40 17.9 40 40v432z"/><path fill-rule="evenodd" clip-rule="evenodd" fill="#FFF" d="M401 150.9c0 61.6-51.4 152-144.1 152-43.2 0-70.8-10.7-93.9-28.6-13.1-10.1-41.6-37-27.9-48.2 10.6-8.7 23.7 11.3 30.5 17.8 8.5 8.1 17.3 17.7 27.9 22.8 90 43.7 180.2-21.7 185.3-109.7-50.7 0-87 .6-132 .6-45.9 0-65.7-.6-102.6-.6-21.3 0-30.4 5.8-30.4 20.9V318c0 23 4.5 25.9 27.9 25.9h238.1c18.2 0 25.3-5 25.3-23.3V198.2c0-12.1-4.8-33 11.9-33 15.5 0 11.3 29.5 11.3 45.7v110.7c0 41.3-28.2 41.3-34.5 41.3H126.4C96.3 363 92 342 92 316.3c0-29.1.2-106.2.2-139.7 0-21.9 17.1-41.9 40.6-41.9H369.9c19.7.1 31.1-3.7 31.1 16.2z"/><circle fill-rule="evenodd" clip-rule="evenodd" fill="#FFF" cx="200.7" cy="206.4" r="15.8"/><circle fill-rule="evenodd" clip-rule="evenodd" fill="#FFF" cx="305.4" cy="206.4" r="15.8"/></svg>