<svg xmlns="http://www.w3.org/2000/svg" width="512" height="512" viewBox="0 0 512 512"><path fill="#A82035" d="M512 472c0 22.1-17.9 40-40 40H40c-22.1 0-40-17.9-40-40V40C0 17.9 17.9 0 40 0h432c22.1 0 40 17.9 40 40v432z"/><path fill-rule="evenodd" clip-rule="evenodd" fill="#FFF" d="M378.2 143.8c-7.1 1.5-12 5.2-17.9 7.8 10.2 11.1 24 18.6 26.9 37 12.1 17.8 32.3 27.5 43.7 46-1.7 6.2-8 7.7-11.2 12.3 8.1 8.7-2.7 17.5 6.7 23.5-7.5 15.1 12.5 33.7-4.5 44.8-19.6 12.9-40.6 6.7-63.9 12.3-55 13.4-71.7 95.3-137.9 90.8 53.3-16.5 62.5-77.3 116.6-93-18.3-5.2-35.1-12-42.6-28 25.9 23.2 96.3 21.1 122.2-1.1.4-14.3-10.5-26.3-12.3-41.5-1-7.8 2-15.8 1.1-23.5-1.8-15.5-14.6-24.1-23.5-32.5-11.7.1-23.4.2-33.6-1.1 4.6-9.2 13.5-14.1 22.4-19.1-2.5-9.9-7.6-17.1-13.5-23.5-32.3 23.7-47.1 65-100.9 67.3 45.6-12.3 54.9-60.9 88.6-85.2-10-13.9-37.1-16.7-53.8-20.2 37.8-4.2 71.9 5 87.4 26.9z"/><path fill-rule="evenodd" clip-rule="evenodd" fill="#FFF" d="M81.1 93.4c16.5 3.8 32.1 8.9 51.6 10.1 32.2 2 62.8-11.2 98.6-7.8 30.2 2.8 46.7 19.3 62.8 38.1-16.8-9.6-35.3-16.7-60.5-16.8-27.4-.1-57 6.3-84.1 4.5-30.4-2.1-50.2-14.9-68.4-28.1z"/><path fill-rule="evenodd" clip-rule="evenodd" fill="#FFF" d="M99.1 113.5c17.6 9.1 37.4 17.4 63.9 19.1 53.8 3.3 124.2-17.1 146.9 29.1-21.2-9.4-48.3-10.2-75.1-9-57.1 2.7-108.5-10.1-135.7-39.2zM140.5 148.3c33.9 19.4 98.1 13.8 148 19.1-46.6 20.9-119.5 10.5-148-19.1z"/></svg>