<svg xmlns="http://www.w3.org/2000/svg" width="512" height="512" viewBox="0 0 512 512"><path fill="#4594CD" d="M512 472c0 22.1-17.9 40-40 40H40c-22.1 0-40-17.9-40-40V40C0 17.9 17.9 0 40 0h432c22.1 0 40 17.9 40 40v432z"/><g fill="#FFF"><path d="M387.3 373.9l18.4-69.3h-37l-17.9 69.3zM409.3 288.6l17.7-68.3h-36.5l-17.7 68.3zM430.7 205.9l17.2-67.8h-36.2l-17.5 67.8zM242.8 304.6l58.7 69.3h36.2l17.4-69.3zM147 220.3l59.7 68.3h152.5l17.2-68.3zM64.1 138.1l57.6 67.8H380l17-67.8zM64.1 138.1v22.1l47.8 45.7h9.7z"/><path d="M147 220.5v22.1l47.8 46h11.9zM243 304.6v22l48.7 47.3h9.8z"/></g></svg>