<svg xmlns="http://www.w3.org/2000/svg" width="512" height="512" viewBox="0 0 512 512"><path fill="#009E8F" d="M512 472c0 22.1-17.9 40-40 40H40c-22.1 0-40-17.9-40-40V40C0 17.9 17.9 0 40 0h432c22.1 0 40 17.9 40 40v432z"/><path fill="#4B5C9C" d="M176.9 193.1C264 38.3 96.5 121.5 53.7 152.4c-2.9 2.1-1.2 3 2.2 1 139.5-75.8 134.1-13.3 119.8 39.4-.4 1.4.3 1.7 1.2.3"/><path fill="#4B5C9C" d="M275.2 384.6c3.4 7.6 9.3 21.4 9.8 24.4.2 1.2 1.3 1 1.2-.1-.2-1.5-2.2-16.8-3.8-24.4-11.5-52.6-40.8-77-90.9-112.3C140 236 129 172.8 127.3 160.4c-.1-.5-.5-.6-.7 0-3.3 13.3-18.6 86.7 33.3 123.3 51.4 36.3 95.1 55.1 115.3 100.9"/><path fill="#FFF" d="M230.4 260c-1.9.2-2.7 1.5.1 1.7 17.6 1.5 81.5-2.9 116.6-32.8 37.3-31.7 73.2-55.1 111-59.2 1-.1 3.3-1.7-.6-1.7-4.9 0-.9-.4-9 .2-37.2 2.7-73.6 16.1-107.1 46.9-33.8 31.2-98.5 42.9-111 44.9M208.2 235.6c-1.9.2-2.7 1.5.1 1.7 17.6 1.5 81.5-2.9 116.6-32.9 37.3-31.7 73.2-55.1 111-59.2 1-.1 3.3-1.7-.6-1.7-4.9 0-.9-.4-8.9.2-37.3 2.7-73.6 16.1-107.1 46.9-33.9 31.3-98.6 43-111.1 45M185.8 211.4c-1.9.2-2.7 1.5.1 1.7 17.6 1.5 81.5-2.9 116.6-32.8 37.3-31.8 73.2-55.1 111-59.2 1-.1 3.3-1.7-.6-1.7-4.9 0-.9-.4-9 .2-37.2 2.7-73.6 16.1-107.1 46.9-33.8 31.2-98.5 42.9-111 44.9"/></svg>