<svg xmlns="http://www.w3.org/2000/svg" width="512" height="512" viewBox="0 0 512 512"><path fill="#AF2B27" d="M512 472c0 22.1-17.9 40-40 40H40c-22.1 0-40-17.9-40-40V40C0 17.9 17.9 0 40 0h432c22.1 0 40 17.9 40 40v432z"/><path fill="#FEFF00" d="M42 250.4c.3-.4.8-.4 1.3-.5 2.8-.8 5.7-1.4 8.6-1.9 4.4-.8 8.7-1.6 13.1-2.3 2.9-.5 5.7-.8 8.6-1.2 1.6-.2 3.2-.1 4.8.2 3.4.6 6.8 1.4 10.1 2.4 5.6 1.6 11.1 3.7 16.4 5.9 6.1 2.6 12 5.3 17.9 8.3 6.6 3.4 12.7 7.4 18.4 12.2 3.6 3.1 7 6.5 10.2 10 4.5 4.9 8.5 10.1 12.7 15.3 1.9 2.4 3.9 4.7 5.9 7 1.4 1.6 2.9 3.1 4.6 4.5 4.4 3.5 9.3 5.5 14.8 6.5 2.5.5 4.9.7 7.4.8 1.2 0 2.4.2 3.7.2 6.4.1 12.7-.6 18.9-1.9 6.8-1.4 13.3-3.7 19.6-6.3 11.1-4.6 21.8-10.3 32.1-16.6 5.9-3.6 11.7-7.3 17.4-11 10.5-6.7 21-13.5 31.5-20.3 7.3-4.7 14.5-9.4 21.8-14 10.4-6.6 20.9-13 31.6-19.1 9-5.1 18.2-10 27.6-14.5 11.3-5.4 22.9-10.2 34.7-14.4 9.2-3.2 18.5-6.1 27.9-8.5 1.7-.4 3.3-.8 5-1.2.5-.1.9-.3 1.5-.1-.1.2-.2.4-.3.4-.9.3-1.7.7-2.6 1-3.8 1.4-7.6 2.7-11.4 4.2-11.6 4.4-23.1 9.1-34.4 14.2-6.1 2.7-12.1 5.6-18 8.6-9 4.5-17.7 9.5-26.2 14.8-10.5 6.6-20.8 13.5-31 20.5-5.4 3.7-10.8 7.4-16.2 11-12.3 8.3-24.7 16.7-37.1 25-8.6 5.7-17.3 11.1-26.3 16.3-7.5 4.3-15.1 8.3-22.9 12-5.7 2.7-11.6 5.2-17.6 7.2-5.8 1.9-11.7 3.2-17.7 3.8-3.6.3-7.2.4-10.8.2a64.8 64.8 0 0 1-16.2-3.3c-3.2-1.1-6.2-2.4-9.2-4-3.1-1.7-5.8-3.8-8.4-6.3-2.5-2.4-4.8-5.1-7-7.8-3.7-4.6-7.4-9.2-11.2-13.8-4.8-5.8-10.2-10.9-16.4-15.2-4.3-2.9-8.7-5.5-13.4-7.8-9.1-4.5-18.6-8-28.3-10.8-8-2.3-16.1-4.1-24.2-5.5-6.3-1.1-12.7-2.1-19.1-3.2l-1.8-.3c-.2-.1-.5-.2-.4-.7z"/><path fill="#FEFF00" d="M88.7 242.1c.5-.5 1.1-.4 1.7-.5 1.3-.1 2.5-.2 3.8-.2 2-.1 3.9-.2 5.9-.3 1.9-.1 3.8-.3 5.8-.4 2.8-.2 5.7-.3 8.5-.5.9 0 1.7.1 2.6.5 1.3.6 2.6 1.2 4 1.8 7.4 3.5 14.6 7.5 21.4 12.1 5.2 3.5 10.2 7.3 14.8 11.5 3.8 3.4 7.2 7.1 10.4 11 3 3.7 5.9 7.6 8.8 11.5 2.2 3 4.6 5.9 7.4 8.5 3.4 3.2 7.5 5.2 12 6 3.3.6 6.5.6 9.8.4 4.7-.4 9.3-1.2 13.8-2.4 4.9-1.3 9.6-3 14.3-4.8 8.4-3.3 16.6-7.2 24.5-11.5 5.8-3.1 11.4-6.5 17-9.9 8-4.9 16.1-9.9 24-14.8 9.3-5.8 18.6-11.6 27.8-17.4 12.3-7.7 24.6-15.5 37.1-22.9 8-4.7 16.2-9.3 24.4-13.7 9.3-4.9 18.8-9.4 28.5-13.5 7.1-3 14.4-5.7 21.8-8 1.7-.5 3.5-1 5.2-1.4.3-.1.7-.3 1 .1-.2.2-.3.3-.5.4-.6.3-1.2.5-1.8.8-5.4 2.3-10.8 4.5-16.2 6.9-9 4-17.8 8.3-26.5 12.8-9.6 5-18.9 10.3-28.1 15.9-7.5 4.6-14.9 9.4-22.2 14.3-4.6 3.1-9.1 6.2-13.7 9.3-13 8.8-26.1 17.6-39.1 26.4-7.7 5.2-15.5 10.2-23.5 14.9-8 4.7-16.1 9.2-24.4 13.2-8 3.9-16.1 7.4-24.5 10.1-5.1 1.6-10.2 2.9-15.5 3.7-2.2.3-4.4.6-6.5.6-8.1.1-15.5-2-22-6.9-2.3-1.7-4.3-3.7-6.2-5.9-1.3-1.5-2.6-3.1-3.9-4.7-3.5-4.3-6.9-8.7-10.6-12.9-5-5.7-10.5-10.7-16.7-15-6.8-4.7-14-8.7-21.4-12.2-8.3-3.9-16.8-7.2-25.6-10-2-.7-4.1-1.2-6.2-1.9-.3-.1-.7-.2-1-.4.1-.3 0-.5-.2-.6z"/><path fill="#FEFF00" d="M401 185.7c-.1.4-.5.5-.8.7-1.2.7-2.3 1.4-3.5 2.1-15.1 8.8-30.1 17.8-44.9 27.2-10.3 6.6-20.4 13.4-30.6 20.2-10.2 6.8-20.5 13.7-30.7 20.5-9.2 6.1-18.5 12.1-28 17.7-5.5 3.2-11.1 6.4-16.8 9.3-4.2 2.2-8.4 4.4-12.7 6.3-5.3 2.4-10.7 4.4-16.4 5.5-3.9.8-7.9 1.3-11.9 1.2-3.4-.1-6.8-.6-10.1-1.7-3.1-1-5.8-2.7-8.2-4.8-1.4-1.3-2.8-2.7-4-4.2-2.5-3.2-4.9-6.4-7.4-9.6-3.1-4.1-6.5-7.9-10.2-11.5-4.3-4.1-9-7.8-13.9-11.2-4.6-3.2-9.5-6-14.3-8.8-2-1.1-4-2.3-5.9-3.4-.4-.2-.9-.4-1.1-.9.1-.3.3-.3.5-.4h11.4c.9 0 1.8 0 2.8-.1 2.2-.1 4.2.3 6 1.5 1.1.7 2.2 1.5 3.2 2.3 7.4 5.4 14.2 11.4 20.5 18.1 5.1 5.4 9.8 11.2 13.9 17.4 1.2 1.8 2.6 3.4 4.3 4.7 1.4 1 2.8 1.8 4.4 2.3 3 1.1 6.1 1.8 9.3 2 4.3.3 8.4-.2 12.5-1.3 6.8-1.8 13.4-4.4 19.8-7.3 8.6-3.9 16.9-8.4 25.1-13.2 9.1-5.2 18-10.8 26.9-16.5 7.7-4.9 15.3-10 22.9-14.9 14.9-9.6 30-19 45.4-27.8 11.3-6.4 22.8-12.5 34.5-18.2 2-1 3.9-2 5.9-2.9.4-.2.9-.4 1.3-.5.4 0 .7-.1.8.2z"/></svg>