<svg xmlns="http://www.w3.org/2000/svg" width="512" height="512" viewBox="0 0 512 512"><path fill="#DF0039" d="M512 472c0 22.094-17.906 40-40 40H40c-22.094 0-40-17.906-40-40V40C0 17.906 17.906 0 40 0h432c22.094 0 40 17.906 40 40v432z"/><g fill="#FFF"><path d="M167.166 120.083l135.066 134.584c.784.781.784 2.051.001 2.833L167.495 391.917c-1.262 1.259-.37 3.416 1.413 3.416h148.67c.535 0 1.048-.215 1.424-.596L454.35 257.49a2 2 0 0 0-.003-2.811L318.324 117.26a1.998 1.998 0 0 0-1.421-.593H168.578c-1.783 0-2.675 2.158-1.412 3.416z"/><path d="M97.666 120.083l135.066 134.584c.784.781.784 2.051.001 2.833L97.995 391.917c-1.262 1.259-.37 3.416 1.413 3.416h38.67c.535 0 1.048-.215 1.424-.596L274.85 257.49a2 2 0 0 0-.003-2.811L138.824 117.26a1.998 1.998 0 0 0-1.421-.593H99.078c-1.783 0-2.675 2.158-1.412 3.416z"/><path d="M57.666 120.083l135.066 134.584c.784.781.784 2.051.001 2.833L57.995 391.917c-1.262 1.259-.37 3.416 1.412 3.416h8.67c.535 0 1.048-.215 1.424-.596L204.85 257.49a2 2 0 0 0-.003-2.811L68.824 117.26a1.998 1.998 0 0 0-1.421-.593h-8.325c-1.783 0-2.675 2.158-1.412 3.416z"/></g></svg>