<svg xmlns="http://www.w3.org/2000/svg" width="512" height="512" viewBox="0 0 512 512"><path fill="#B5BE01" d="M512 472c0 22.1-17.9 40-40 40H40c-22.1 0-40-17.9-40-40V40C0 17.9 17.9 0 40 0h432c22.1 0 40 17.9 40 40v432z"/><path fill="#FFF" d="M215.9 207.5l-7.5 31.9.3.3c8.2 7.4 19.4 11.3 29.6 14.4 10.2 3.1 7.5 15.3-2.9 13.5-10-1.7-21.9-4.2-31.5-9.1l-3.4 14.4h76.6l15.3-65.4h-76.5z"/><path fill="#003B71" d="M448.3 217.3c-33.7 17.7-75.8 18-111.7 8.1-8.1-2.2-19.1-6.4-28.3-12.7.4-.2.9-.4 1.3-.6 18.6-8.9 19.6-33.2 11-47.3-7.3-12-21.9-16-34.4-4.8-10.8 9.6-12.3 20.5-10.2 30.3 2.2.8 10.3 3.9 13.7 4.9 2.9.8 2.7-.5 2.5-1-1.1-2.9-1.8-5.9-1.7-9.2.6-9.6 6.8-16.8 14.4-13.3 4.4 2.7 5.3 7.4 5.2 11 .1 3.4-.7 7.2-2.3 10.3-1.2 2.3-4.1 4.8-7.1 5.5-5.4 1.9-12.6 2.8-27 1.9-12-.4-26-1.9-33.8-2.5-27.3-1.9-48.3 6.9-52.8 27.7-3.6 16.8 4.8 26.7 16.7 32.9 9.6 4.9 21.5 7.4 31.5 9.1 10.4 1.7 13.1-10.4 2.9-13.5-10.2-3.1-21.4-7-29.6-14.4l-.3-.3c-8.1-7.5-5-17.3 3.7-21.7.5-.2 1-.4 1.5-.7l2.2-9.6h76.6L277 272.8h-76.6l8 9.5h21c-1 11.3 7.7 17.1 15.6 22.6 14.2 9.7-11.8 8.3-18.5 8.1-12.9-.4-25.9-1-38.8-1.7-40.4-2.1-92.3-5.4-123.1 28.2-13.6 14.8 2.3 26.8 15.6 12 31-34.5 97.3-21.9 135.9-20.9 16.4.5 55 5.1 52.2-23.3-.9-8.7-11.4-14.2-17.4-18-4.4-2.8-5.8-5.1-5.1-7H285l1.2-5.2c1.2.2 2.4.4 3.5.6 15.9 3.4 34.8 9.4 52.7 17.4 29 13 56.4 32.5 69.5 57.6 5.4 10.3 15.6 5.3 10.3-5.3-20.3-40.8-59.7-60.5-98.9-74.9-10.4-3.8-22.2-7.6-33.8-10.2l9-40.4c9.8 6.9 21.9 11.7 30.6 14.5 38.6 12.6 86.9 9.6 121.5-13.6 3.3-1.9 1.2-7.3-2.3-5.5zm-180.4 12.9h4.7l4-17.8h-4.7l-4 17.8zm18.7-17.8h-6.2l-4 17.8h6.2l4-17.8zm-36.9 17.8h2.6l4-17.8h-2.6l-4 17.8zm6.3 0h1.4l4-17.8H260l-4 17.8zm5.1 0h3.1l4-17.8h-3l-4.1 17.8z"/></svg>