<svg xmlns="http://www.w3.org/2000/svg" width="512" height="512" viewBox="0 0 512 512"><path fill="#254532" d="M512 472c0 22.1-17.9 40-40 40H40c-22.1 0-40-17.9-40-40V40C0 17.9 17.9 0 40 0h432c22.1 0 40 17.9 40 40v432z"/><circle fill="#D92227" cx="256" cy="256" r="174"/><path fill="#FFF" stroke="#933" stroke-width="7" stroke-linecap="round" stroke-linejoin="round" d="M256.1 102.2L292.7 206l-36.6 36.7-36.2-36.7zM405.8 208.7l-85.9 68.8-46.7-22.4 22.7-46.4zM106.2 207.8l110.1-.3 22.5 46.7-46.6 22.1zM162.8 386l30.4-105.8 51.1-8.7 8.3 50.9zM345.9 387.8l-88.7-65.1 9.5-50.9 50.7 9.9z"/></svg>