<svg xmlns="http://www.w3.org/2000/svg" width="512" height="512" viewBox="0 0 512 512"><path fill="#E5151B" d="M512 472c0 22.1-17.9 40-40 40H40c-22.1 0-40-17.9-40-40V40C0 17.9 17.9 0 40 0h432c22.1 0 40 17.9 40 40v432z"/><g fill="#FFF"><path d="M374.1 339.1c-.3 0-.5 0-.8-.2-.7-.3-1.2-1-1.2-1.9l.3-159.6c0-2.2 0-3.8 2-3.8.6 0 1.1.3 1.5.7l80.5 80.5c.8.8.8 2 0 2.8l-80.8 80.8c-.4.5-1 .7-1.5.7z"/><path d="M374.4 175.7l80.5 80.6-80.8 80.8.3-161.4m0-4c-1.4 0-2.8.8-3.5 2-.5.9-.5 1.1-.5 3.8v23.4l-.1 55.5-.1 80.7a4.025 4.025 0 0 0 4 4c1 0 2.1-.4 2.8-1.2l80.8-80.8c1.6-1.6 1.6-4.1 0-5.7L377.4 173c-.8-.8-1.8-1.3-3-1.3z"/></g><g fill="#FFF"><path d="M137.6 339.1c-.6 0-1.1-.3-1.5-.7L55.6 258c-.4-.4-.6-.9-.6-1.4 0-.5.2-1 .6-1.4l80.8-80.8c.4-.4.9-.6 1.4-.6.3 0 .5 0 .8.2.7.3 1.2 1 1.2 1.9l-.3 159.6c.1 2 .1 3.6-1.9 3.6z"/><path d="M137.9 175.7l-.3 161.4L57 256.6l80.9-80.9m0-4c-1 0-2.1.4-2.8 1.2l-80.8 80.8c-.8.8-1.2 1.8-1.2 2.8 0 1.1.4 2.1 1.2 2.8l80.4 80.4c.7.8 1.8 1.3 3 1.3.2 0 4-.1 4-4.5v-24.7l.1-55.5.1-80.7c0-1.6-1-3.1-2.5-3.7-.5-.1-1-.2-1.5-.2z"/></g><g fill="#FFF"><path d="M221.2 218.4c-1.1 0-2-.9-2-2v-70.9h-48.9c-.8 0-1.5-.5-1.8-1.2-.3-.7-.1-1.6.4-2.2l84.8-84.8c.4-.4.9-.6 1.4-.6s1 .2 1.4.6l83.4 83.4c.6.6.7 1.4.4 2.2-.3.7-1 1.2-1.8 1.2H295v72.3c0 1.1-.9 2-2 2h-71.8z"/><path d="M255.2 58.7l83.4 83.4H293v74.3h-71.8v-72.9h-50.9l84.9-84.8m0-4c-1 0-2 .4-2.8 1.2l-84.8 84.8c-1.1 1.1-1.5 2.9-.9 4.4.6 1.5 2.1 2.5 3.7 2.5h46.9v68.9c0 2.2 1.8 4 4 4H293c2.2 0 4-1.8 4-4v-70.3h41.5c1.6 0 3.1-1 3.7-2.5.6-1.5.3-3.2-.9-4.4L258 55.9c-.8-.8-1.8-1.2-2.8-1.2z"/></g><g fill="#FFF"><path d="M257.3 455.3c-.5 0-1-.2-1.4-.6l-83.4-83.4c-.6-.6-.7-1.4-.4-2.2.3-.7 1-1.2 1.8-1.2h43.5v-72.3c0-1.1.9-2 2-2h71.8c1.1 0 2 .9 2 2v70.9h48.9c.8 0 1.5.5 1.8 1.2.3.7.1 1.6-.4 2.2l-84.8 84.8c-.4.3-.9.6-1.4.6z"/><path d="M291.2 295.6v72.9h50.9l-84.8 84.8-83.4-83.4h45.5v-74.3h71.8m0-4h-71.8c-2.2 0-4 1.8-4 4v70.3h-41.5c-1.6 0-3.1 1-3.7 2.5-.6 1.5-.3 3.2.9 4.4l83.4 83.4c.8.8 1.8 1.2 2.8 1.2 1 0 2-.4 2.8-1.2l84.8-84.8c1.1-1.1 1.5-2.9.9-4.4-.6-1.5-2.1-2.5-3.7-2.5h-46.9v-68.9c0-2.2-1.8-4-4-4z"/></g></svg>