<svg xmlns="http://www.w3.org/2000/svg" width="512" height="512" viewBox="0 0 512 512"><path fill="#D0D2D3" d="M512 472c0 22.1-17.9 40-40 40H40c-22.1 0-40-17.9-40-40V40C0 17.9 17.9 0 40 0h432c22.1 0 40 17.9 40 40v432z"/><path fill="#9FA1A4" d="M82.6 192.8v126.4l119.8-57z"/><path fill="#007698" d="M142.5 166.9L280.2 256V82.4z"/><path fill="#B0CAEA" d="M429.4 169.2L280.2 256V82.4z"/><path fill="#EE3A43" d="M429.4 335.4L280.2 256l149.2-86.8z"/><path fill="#A30234" d="M280.2 429.6V256l149.2 79.4z"/><path fill="#63619A" d="M142.5 335.4L280.2 256v173.6z"/></svg>