<svg xmlns="http://www.w3.org/2000/svg" width="512" height="512" viewBox="0 0 512 512"><path fill="#20376C" d="M512 472c0 22.1-17.9 40-40 40H40c-22.1 0-40-17.9-40-40V40C0 17.9 17.9 0 40 0h432c22.1 0 40 17.9 40 40v432z"/><path fill="#F6D614" d="M81 243.7s95-92.2 257.8-58.3l-128.9 40.5S127.1 210.8 81 243.7z"/><path fill="#F6D614" d="M42.4 297.4s55.5-84.7 160.9-63v43.3c0-.1-65.8-43.4-160.9 19.7zM352.9 191.1l-138.3 44.2-.9 48.9 118.5 49.9 137.4-55.5v-49z"/><path fill="#FFF" d="M324.7 319.9l-101.6-42.3v-31l101.6 38.5zM238.1 238.1l116.7-37.6 94.1 31-115.8 46.1zM336 319.9v-33.8l122.3-44.2.9 31z"/><path fill="#213E7B" d="M288.4 229.7c.3.8-.1 1.7-.9 2l-27.6 10c-.8.3-1.7-.1-2-.9-.3-.8.1-1.7.9-2l27.6-10c.8-.4 1.7.1 2 .9zM295 233.1c.3.8-.1 1.7-.9 2l-27.6 10c-.8.3-1.7-.1-2-.9-.3-.8.1-1.7.9-2l27.6-10c.8-.3 1.7.1 2 .9zM362.9 230c.4 1-.1 2.1-1.1 2.4l-33.1 12c-1 .4-2.1-.1-2.4-1.1-.4-1 .1-2.1 1.1-2.4l33.1-12.1c.9-.3 2 .2 2.4 1.2zM351.6 226.2c.4 1-.1 2.1-1.1 2.4l-33.1 12.1c-1 .4-2.1-.1-2.4-1.1-.4-1 .1-2.1 1.1-2.4l33.1-12.1c.9-.4 2 .1 2.4 1.1zM373.5 235c.4 1-.1 2.1-1.1 2.4l-33.1 12.1c-1 .4-2.1-.1-2.4-1.1-.4-1 .1-2.1 1.1-2.4l33.1-12.1c1-.4 2.1.1 2.4 1.1z"/></svg>