<svg xmlns="http://www.w3.org/2000/svg" width="512" height="512" viewBox="0 0 512 512"><path fill="#E01322" d="M512 472c0 22.1-17.9 40-40 40H40c-22.1 0-40-17.9-40-40V40C0 17.9 17.9 0 40 0h432c22.1 0 40 17.9 40 40v432z"/><ellipse transform="rotate(-33.049 165.987 226.828)" fill="#FFF" cx="166" cy="226.8" rx="34.6" ry="16.9"/><path fill="#F7EB00" d="M452.3 233.5s-4.9 1.7-9.4 8.3c-4.5 6.6-47.9 72.9-105.1 79.8-57.2 6.9-68.4-4.2-86.7-35.7 0 0-12.5-39.6 6.2-79.1 18.7-39.6 40.2-60 11.8-63.8 0 0-29.1 2.4-69.6 28.2 15.7-1.6 28.2 1.9 34.1 10.9 12.2 18.7-9.1 54.1-47.4 79.1-38.4 25-79.3 30.1-91.5 11.4-5.2-8.1-4.3-19.2 1.6-31.3-7 6-57.7 50.9-40.8 63.2 0 0 5.2 4.5 29.8 2.1s59 3.8 78.8 12.5c19.8 8.7 48.9 27.4 59 31.2 10.1 3.8 67.3 34 122.1 9.7S448.9 280.9 460 245.2c-.1-.3 1.6-12.8-7.7-11.7z"/><path fill="#F7EB00" d="M380.5 223c10.4 15.3 2.2 39-18.4 53-20.6 14-45.7 13-56.1-2.3-10.4-15.3-2.2-39 18.4-53 20.5-14 45.7-13 56.1 2.3z"/></svg>