<svg xmlns="http://www.w3.org/2000/svg" xmlns:xlink="http://www.w3.org/1999/xlink" width="512" height="512" viewBox="0 0 512 512"><path fill="#E32C21" d="M512 472c0 22.1-17.9 40-40 40H40c-22.1 0-40-17.9-40-40V40C0 17.9 17.9 0 40 0h432c22.1 0 40 17.9 40 40v432z"/><defs><path id="a" d="M71.6 254.6h368.7V439H71.6z"/></defs><clipPath id="b"><use xlink:href="#a" overflow="visible"/></clipPath><path clip-path="url(#b)" fill="#FFF" d="M434.6 255.3c0 98.2-79.6 177.9-177.9 177.9-98.2 0-177.9-79.6-177.9-177.9 0-98.2 79.6-177.9 177.9-177.9 98.3 0 177.9 79.6 177.9 177.9z"/><g><defs><path id="c" d="M77.4 73.1h360.1v167.1H77.4z"/></defs><clipPath id="d"><use xlink:href="#c" overflow="visible"/></clipPath><path clip-path="url(#d)" fill="#BFC0C4" d="M436 258.2c0 98.2-79.6 177.9-177.9 177.9-98.2 0-177.9-79.6-177.9-177.9 0-98.2 79.6-177.9 177.9-177.9 98.3 0 177.9 79.6 177.9 177.9z"/></g><path fill="#E32C21" d="M427.4 247.4c0 46.9-38 85-85 85-46.9 0-85-38-85-85 0-46.9 38-85 85-85 46.9 0 85 38 85 85z"/></svg>