<svg xmlns="http://www.w3.org/2000/svg" width="512" height="512" viewBox="0 0 512 512"><path fill="#DC1E35" d="M512 472c0 22.1-17.9 40-40 40H40c-22.1 0-40-17.9-40-40V40C0 17.9 17.9 0 40 0h432c22.1 0 40 17.9 40 40v432z"/><path fill-rule="evenodd" clip-rule="evenodd" fill="#FFF" d="M58.3 208.4c56.3-8.3 110.7-21.6 161.2-36.9 18.2-5.5 35-13 53.7-15.8 23.4-3.4 49.5 23.1 29.5 47.5-21 25.7-87.5 36.5-143.3 33.7-44.1-2.3-75.5-14.4-101.1-28.5z"/><path fill-rule="evenodd" clip-rule="evenodd" fill="#FFF" d="M137.3 250.5c55.5 13.7 159.7 0 192.8-41.1 15.7-19.5 7.3-49.9-11.5-59 72-5.2 139.6 27.8 134.9 99.1C446.2 359.3 256 406 196.3 310.6c75.4 17.5 163.9-3.6 187.6-61.1-40 63.2-199.3 58.6-246.6 1z"/></svg>