<svg xmlns="http://www.w3.org/2000/svg" width="512" height="512" viewBox="0 0 512 512"><path fill="#FCD116" d="M512 472c0 22.094-17.906 40-40 40H40c-22.09 0-40-17.906-40-40V40C0 17.91 17.91 0 40 0h432c22.094 0 40 17.91 40 40v432z"/><g fill="#003F77"><path d="M232.58 184.123c-9.751 0-18.573.141-27.381-.158-1.262-.043-3.031-1.984-3.582-3.423-4.107-10.725-4.018-21.579-.321-32.417.646-1.893 1.436-3.736 2.153-5.588-7.129-3.348-17.601.436-23.218 8.245-7.359 10.231-5.535 21.173 6.344 33.381h-8.764c-5.76-.001-11.524-.144-17.277.054-2.993.103-4.422-1.102-5.497-3.803-11.154-28.015 9.555-60.811 39.659-62.771 8.564-.557 16.694.768 24.534 4.367 1.539.707 3.964.642 5.531-.064 9.543-4.3 19.367-5.453 29.635-3.611 1.634.293 3.413.154 5.07-.116 9.941-1.621 19.476-.523 28.77 3.496 1.822.788 4.573.873 6.363.079 31.498-13.974 65.802 7.283 66.572 41.712.129 5.752-1.8 11.601-3.21 17.299-.33 1.334-2.389 3.142-3.703 3.185-8.691.285-17.395.147-27.283.147 11.266-10.812 14.556-22.261 4.974-34.705-5.345-6.941-12.936-9.12-22.236-7.813.695 1.936 1.152 3.346 1.702 4.719 4.472 11.164 4.625 22.384.705 33.748-1.001 2.902-2.478 4.222-5.722 4.141-8.232-.207-16.473-.069-25.917-.069 10.714-9.816 14.225-20.462 6.735-32.772-3.921-6.445-11.181-10.093-18.471-9.679-.092 1.576-.267 3.218-.271 4.861-.026 10.897-.165 26.816.061 37.708l-23.835-.246s.077-26.357.077-36.942v-4.971c-6.858-1.416-15.116 3.2-19.409 10.514-5.652 9.631-3.707 18.885 7.212 31.492zM185.111 204.008c.061 7.852-6.171 14.275-13.998 14.427-7.795.152-14.275-6.156-14.415-14.032-.144-8.105 6.215-14.638 14.248-14.637 7.825.001 14.103 6.313 14.165 14.242zM356.849 203.977c.02 7.909-6.733 14.599-14.597 14.46-7.754-.137-14.177-6.736-14.072-14.457.106-7.839 6.533-14.23 14.296-14.216 7.725.013 14.354 6.568 14.373 14.213zM199.656 203.902c.065-7.875 6.463-14.226 14.243-14.137 7.818.089 14.17 6.493 14.179 14.295.01 7.831-6.322 14.288-14.107 14.386-7.967.101-14.382-6.416-14.315-14.544zM313.924 204.311c-.135 7.763-6.717 14.21-14.426 14.13-7.781-.081-14.226-6.558-14.24-14.31-.013-7.951 6.733-14.568 14.643-14.362 7.725.202 14.157 6.872 14.023 14.542zM256.538 189.763c7.76-.096 14.268 6.248 14.418 14.057.151 7.826-6.044 14.371-13.846 14.627-7.899.259-14.319-5.872-14.485-13.83-.174-8.367 5.809-14.754 13.913-14.854zM442.262 256.201c-19.931.159-50.29.135-70.221-.047 0 0-1.88 29.936-5.978 41.634-4.083 11.655-9.848 22.398-18.006 32.467-9.61-35.91-30.988-60.483-66.595-70.321-35.535-9.818-66.55.136-93.466 26.2-.17-2.397-.357-3.874-.365-5.352-.033-6.384-.203-12.777.056-19.151.162-3.988.25-5.477.25-5.477-35.504.142-81.529.168-117.033.055 0 0-.139 2.576.093 5.109 1.089 11.914 2.126 23.929 4.647 35.576 20.04 92.572 109.626 159.502 210.91 142.9 89.207-14.623 152.831-88.394 155.698-178.259.135-4.202.01-5.334.01-5.334zm-319.3 91.7c-13.555-20.373-22.623-42.412-26.254-67.283 0 0 42.803-.317 62.262-.467 3.777-.029 4.755-.027 4.755-.027-.121 18.214.244 41.383-.133 59.59-.41 19.811 2.321 38.786 12.71 56.348-12.684-4.164-39.145-26.827-53.34-48.161zm288.764-44.851c-22.216 65.531-67.57 103.85-136.002 114.35-17.79 2.73-35.331 1.765-51.8-7.098-28.093-15.117-42.412-48.081-34.026-79.139 8.345-30.908 37.585-52.327 69.433-50.863 36.151 1.663 64.514 29.725 66.651 65.721.233 3.933-.795 6.501-4.274 8.328-6.548 3.437-13.01 7.038-19.686 10.667.361-7.391 1.415-13.893.859-20.254-2.074-23.711-21.565-41.574-45.221-42.044-23.966-.476-44.242 17.099-47.321 41.017-2.961 22.998 12.01 45.157 34.845 50.687 14.831 3.591 29.879 2.05 44.406-1.562 56.628-14.083 91.434-49.832 103.97-106.891 1.012-4.608.856-5.845.856-5.845s16.552.087 22.771.087c-1.926 8.206-3.054 15.74-5.461 22.839zm-132.257 46.395c-.019 12.653-10.204 22.744-22.874 22.663-12.59-.08-22.874-10.363-22.86-22.859.014-12.342 10.564-22.758 23.044-22.751 12.483.008 22.709 10.35 22.69 22.947zM186.66 225.345h139.833v24.124H186.66z"/></g><path fill="#003F77" d="M268.515 86.277v-7.326h-8.276v-8.276h-7.326v8.276h-8.276v7.326h8.276v5.737c-4.794 1.547-8.265 6.041-8.265 11.349 0 6.588 5.34 11.928 11.928 11.928 6.588 0 11.928-5.34 11.928-11.928 0-5.309-3.471-9.803-8.265-11.349v-5.737h8.276z"/></svg>