<svg xmlns="http://www.w3.org/2000/svg" width="512" height="512" viewBox="0 0 512 512"><path fill="#FCC707" d="M512 472c0 22.1-17.9 40-40 40H40c-22.1 0-40-17.9-40-40V40C0 17.9 17.9 0 40 0h432c22.1 0 40 17.9 40 40v432z"/><path fill-rule="evenodd" clip-rule="evenodd" fill="#231F20" d="M219.8 127.3c.2.1.3.3.5.3 1 30.1-4.9 56.3-12.9 78.1-8 22.1-21.7 39.2-47.9 43.1-.2-1.4.8-2.8 1.3-4.2 4.1-10.4 6.4-23.9 6.8-38.2-12.9 5.2-26.5 11.2-39.7 16.8-1.8.8-4 2.1-5.5 2.4-5.7 1.1-12 0-18.2 0-5.5 0-12.7 1.1-18.2 0-3-.6-6.9-4.7-9.5-7.1-19.9-18.7-25-52.2-26-89.5 1.1-.4 2.2.8 2.9 1.3 12.7 9.8 25.7 19.3 38.9 29.5 2.1 1.6 4.3 4.1 6.1 4.5 4.4 1 10.9 0 16.1 0h31.6c5.1 0 11.3.9 15.8 0 1.9-.4 5-3 7.4-4.5 16.4-10.3 35.2-22.6 50.5-32.5zm-137.3 64c-.1 7.4 7.6 5.1 13.7 5.5 3.3.2 6.5 1 9.2 1.8 3 .9 5.5 3.1 8.4 2.6 1.6-.3 3.8-1.9 4.2-3.7 1.5-6.4-5.4-7.8-9.7-9.2-5.9-2-13.6-3.4-20.3-2.4-2.5.5-5.5 1.6-5.5 5.4zm60.5 5c.1 2.3 2.1 4.7 4.7 5 2.7.3 5-1.6 8.4-2.6 2.8-.9 6.3-1.6 9.5-1.8 4-.3 7.3.8 9.7 0 2.6-.8 4.8-5.4 2.6-8.7-1.7-2.6-6.9-2.7-13.7-2.1-6.4.5-21.4 3-21.2 10.2z"/><path fill-rule="evenodd" clip-rule="evenodd" fill="#231F20" d="M92.5 362.8c-2.7-2.1-4.4-5.2-6.8-7.6.9-2.2 2.2-4 3.2-6.1-2.7-.2-4.3 1.9-6.3 1.6-2.4-.4-4.5-5.9-6.6-7.1 5.3-6.8 11.9-12.3 17.4-18.9v-17.4c-6.2-2.4-13.1-4.1-19.7-6.1-.3-3.3-.7-6.5-.8-10 2.4-.8 5.1-1.2 7.4-2.1-5.4-1.3-11.1-2.4-16.8-3.4v-10c3.2-.4 5.6-1.6 8.7-2.1 7.8 4.7 16.4 10.2 28.4 11 28.7 2.1 45.7-14 56.3-30.8 25.7-2.9 40.9-16.3 50.5-35.3h119.4c5.7 0 11.7.8 16.8 0 4.1-.6 10.3-3.7 14.5-5.3 33.2-12.6 67.9-25.3 100.5-37.6 2.7 5.2 4.9 10.8 7.4 16.3-34.4 21.2-69.5 41.7-104.5 62.4 11.9 38.1 24.2 76 36 114.2-6 3.6-11.9 7.2-17.6 11-19.3-17.3-38-35.3-57.4-52.6-16.3 19-31.9 38.8-48.4 57.6-6.7-3.6-13.5-7-20.5-10.3 6.6-22 13.1-44.1 19.7-66-12.3-.5-24.3-.3-37.4-.3-4.1 0-9-.8-12.4 0-1.3.3-4 2.9-5.8 4.5-27 24-54.8 48.2-81.8 71.6-8-4.6-15.5-9.6-23.4-14.2 5.3-9.2 11.7-17.3 17.4-26 0-.2.1-.2.3-.3-12.3 5.8-25.5 12.8-37.7 19.3zm48.9-36.3c4.6-7.5 9.6-14.4 14.2-21.8-5.1-6.2-9.4-13.2-14.5-19.5.2 13.7-.3 28.1.3 41.3z"/><path fill-rule="evenodd" clip-rule="evenodd" fill="#231F20" d="M46.2 205c8.5 5.5 19 13.1 28.7 19.7 2.8 1.9 7 5.7 9.5 6.3 5.1 1.2 14.2 0 19.7 0 6.5 0 13.5 1 19.7 0 3-.5 6.4-2.7 9.7-4.2 9.4-4.2 19.9-8.8 28.9-12.6-1.1 20.6-6.9 35.4-16.8 47.4-9.4 11.3-25.3 20.5-45.3 18.4-19-2-30.5-12.6-39.2-25-6.7-9.6-11.5-20.8-13.7-34.5-.7-4.6-.9-10.3-1.2-15.5zm64.2 49.4c0 1.9 1.7 3.9 3.9 3.9 1.9.1 3.7-1.8 7.4-2.6 5.4-1.3 11.4.3 11.3-5-.1-3.8-2.6-4-6.6-3.7-5.1.4-16.2 2-16 7.4zm-37.7-3.1c.2 5.5 7.9 3.2 13.7 5.3 1.9.6 4 2.4 6.1 1.8 1.6-.4 2.7-2.6 2.6-4.2-.2-4.6-9.7-6.7-15.3-7.1-1.7-.1-4.2.1-4.7.3-1.6.6-2.5 1.3-2.4 3.9zM232.7 377c-7.5 2.5-15.2 4.8-22.4 7.6-9-11.8-16.7-24.9-25.5-36.8 11.3-10.5 23.5-20.2 34.7-30.8 5 19.5 9 39.9 13.2 60z"/></svg>