<svg xmlns="http://www.w3.org/2000/svg" width="512" height="512" viewBox="0 0 512 512"><path fill="#F11F36" d="M512 472c0 22.1-17.9 40-40 40H40c-22.1 0-40-17.9-40-40V40C0 17.9 17.9 0 40 0h432c22.1 0 40 17.9 40 40v432z"/><path fill="#FFF" d="M261.2 182.6H70.4v258.2h258.1v-189l-45.2 43.9v100.9H115.1V227.3h102z"/><path fill="#5A717C" d="M182.9 71.2v190.3l45.2-45.2V115.4h168.3v168.7H294.9l-44.1 44.7h190.8V71.2z"/><path fill="#FFF" d="M362.2 149.2V249l-33.1-33.3-101.1 101-33.3-33.3 100.6-100.6-33-33.6"/></svg>